<svg width="44" height="32" viewBox="0 0 44 32" fill="none" xmlns="http://www.w3.org/2000/svg">
<path d="M8 0H44V24H8V0ZM26 6C27.5913 6 29.1174 6.63214 30.2426 7.75736C31.3679 8.88258 32 10.4087 32 12C32 13.5913 31.3679 15.1174 30.2426 16.2426C29.1174 17.3679 27.5913 18 26 18C24.4087 18 22.8826 17.3679 21.7574 16.2426C20.6321 15.1174 20 13.5913 20 12C20 10.4087 20.6321 8.88258 21.7574 7.75736C22.8826 6.63214 24.4087 6 26 6ZM16 4C16 5.06087 15.5786 6.07828 14.8284 6.82843C14.0783 7.57857 13.0609 8 12 8V16C13.0609 16 14.0783 16.4214 14.8284 17.1716C15.5786 17.9217 16 18.9391 16 20H36C36 18.9391 36.4214 17.9217 37.1716 17.1716C37.9217 16.4214 38.9391 16 40 16V8C38.9391 8 37.9217 7.57857 37.1716 6.82843C36.4214 6.07828 36 5.06087 36 4H16ZM0 8H4V28H36V32H0V8Z" fill="white"/>
</svg>
