<svg width="40" height="40" viewBox="0 0 40 40" fill="none" xmlns="http://www.w3.org/2000/svg">
<path d="M7 10C6.20435 10 5.44129 9.68393 4.87868 9.12132C4.31607 8.55871 4 7.79565 4 7C4 6.20435 4.31607 5.44129 4.87868 4.87868C5.44129 4.31607 6.20435 4 7 4C7.79565 4 8.55871 4.31607 9.12132 4.87868C9.68393 5.44129 10 6.20435 10 7C10 7.79565 9.68393 8.55871 9.12132 9.12132C8.55871 9.68393 7.79565 10 7 10ZM38.82 19.16L20.82 1.16C20.1 0.44 19.1 0 18 0H4C1.78 0 0 1.78 0 4V18C0 19.1 0.44 20.1 1.18 20.82L19.16 38.82C19.9 39.54 20.9 40 22 40C23.1 40 24.1 39.54 24.82 38.82L38.82 24.82C39.56 24.1 40 23.1 40 22C40 20.88 39.54 19.88 38.82 19.16Z" fill="white"/>
</svg>
