<svg width="34" height="34" viewBox="0 0 34 34" fill="none" xmlns="http://www.w3.org/2000/svg">
<path d="M30 0L0 30L4 34L34 4L30 0ZM7 1C5.4087 1 3.88258 1.63214 2.75736 2.75736C1.63214 3.88258 1 5.4087 1 7C1 8.5913 1.63214 10.1174 2.75736 11.2426C3.88258 12.3679 5.4087 13 7 13C8.5913 13 10.1174 12.3679 11.2426 11.2426C12.3679 10.1174 13 8.5913 13 7C13 5.4087 12.3679 3.88258 11.2426 2.75736C10.1174 1.63214 8.5913 1 7 1ZM27 21C25.4087 21 23.8826 21.6321 22.7574 22.7574C21.6321 23.8826 21 25.4087 21 27C21 28.5913 21.6321 30.1174 22.7574 31.2426C23.8826 32.3679 25.4087 33 27 33C28.5913 33 30.1174 32.3679 31.2426 31.2426C32.3679 30.1174 33 28.5913 33 27C33 25.4087 32.3679 23.8826 31.2426 22.7574C30.1174 21.6321 28.5913 21 27 21Z" fill="white"/>
</svg>
