<svg width="347" height="300" viewBox="0 0 347 300" fill="none" xmlns="http://www.w3.org/2000/svg">
<g clip-path="url(#clip0)">
<g opacity="0.8">
<path opacity="0.8" d="M178.303 101.439C211.689 101.439 238.753 80.4727 238.753 54.6095C238.753 28.7463 211.689 7.78003 178.303 7.78003C144.918 7.78003 117.854 28.7463 117.854 54.6095C117.854 80.4727 144.918 101.439 178.303 101.439Z" fill="url(#paint0_linear)"/>
</g>
<path d="M178.304 100.399C210.948 100.399 237.412 79.8983 237.412 54.6096C237.412 29.3208 210.948 8.82019 178.304 8.82019C145.659 8.82019 119.195 29.3208 119.195 54.6096C119.195 79.8983 145.659 100.399 178.304 100.399Z" fill="#61A199"/>
<path opacity="0.1" d="M128.75 59.6986C128.75 34.4101 155.211 13.9093 187.854 13.9093C197.989 13.8535 208.023 15.9246 217.308 19.9889C206.919 12.9723 193.327 8.70874 178.452 8.70874C145.809 8.70874 119.344 29.2095 119.344 54.4981C119.344 71.4782 131.276 86.2997 149.003 94.2078C136.592 85.8127 128.75 73.4676 128.75 59.6986Z" fill="white"/>
<path opacity="0.2" d="M178.303 73.0138L243.83 186.509L309.356 300H178.303H47.25L112.777 186.509L178.303 73.0138Z" fill="#61A199"/>
<path d="M148.86 238.329L140.533 240.66L140.903 241.982L149.23 239.651L148.86 238.329Z" fill="#3F3D56"/>
<path d="M209.16 221.808L207.552 222.685L142.257 240.962L141.288 239.757C139.608 237.697 138.535 235.209 138.187 232.574C137.94 230.605 138.121 228.531 139.494 227.268L137 207.157L173.112 197L190.239 204.37C190.239 204.37 196.8 202.41 201.628 205.869C203.156 206.965 204.511 208.603 205.428 211.022L206.217 213.303L209.16 221.808Z" fill="#575A89"/>
<path d="M194.726 233.864C199.35 233.864 203.099 230.116 203.099 225.491C203.099 220.867 199.35 217.119 194.726 217.119C190.102 217.119 186.354 220.867 186.354 225.491C186.354 230.116 190.102 233.864 194.726 233.864Z" fill="#3F3D56"/>
<path d="M194.725 229.898C197.159 229.898 199.132 227.925 199.132 225.491C199.132 223.058 197.159 221.085 194.725 221.085C192.291 221.085 190.318 223.058 190.318 225.491C190.318 227.925 192.291 229.898 194.725 229.898Z" fill="#D0CDE1"/>
<path d="M154.941 245C159.565 245 163.314 241.252 163.314 236.627C163.314 232.003 159.565 228.255 154.941 228.255C150.317 228.255 146.568 232.003 146.568 236.627C146.568 241.252 150.317 245 154.941 245Z" fill="#3F3D56"/>
<path d="M154.942 241.034C157.376 241.034 159.348 239.061 159.348 236.627C159.348 234.194 157.376 232.221 154.942 232.221C152.508 232.221 150.535 234.194 150.535 236.627C150.535 239.061 152.508 241.034 154.942 241.034Z" fill="#D0CDE1"/>
<path d="M184.318 204.602L158.411 211.853L156.229 204.055L172.751 199.43L184.318 204.602Z" fill="white"/>
<path d="M153.056 204.943L142.746 207.828L144.929 215.627L155.239 212.741L153.056 204.943Z" fill="white"/>
<path d="M161.361 217.299L160.039 217.669L160.742 220.18L162.064 219.81L161.361 217.299Z" fill="#3F3D56"/>
<path d="M182.54 208.948L182.17 207.626L179.659 208.329L180.029 209.651L182.54 208.948Z" fill="#3F3D56"/>
<path d="M179.203 203.127L179.349 203.086C180.081 202.881 180.865 202.975 181.528 203.348C182.191 203.721 182.679 204.342 182.884 205.075C183.089 205.808 182.995 206.592 182.622 207.255C182.249 207.918 181.628 208.406 180.895 208.611L180.75 208.652L179.203 203.127Z" fill="#3F3D56"/>
<path d="M206.218 213.303C205.249 213.691 204.174 213.724 203.182 213.397C202.191 213.07 201.346 212.404 200.798 211.515C200.249 210.627 200.032 209.573 200.184 208.54C200.336 207.507 200.848 206.561 201.629 205.869C203.157 206.964 204.512 208.603 205.429 211.022L206.218 213.303Z" fill="#3F3D56"/>
<path d="M228.052 205.247C230.277 205.247 232.08 203.444 232.08 201.219C232.08 198.994 230.277 197.191 228.052 197.191C225.827 197.191 224.023 198.994 224.023 201.219C224.023 203.444 225.827 205.247 228.052 205.247Z" fill="white"/>
<path d="M240.813 196.898C241.925 196.898 242.827 195.996 242.827 194.883C242.827 193.771 241.925 192.869 240.813 192.869C239.701 192.869 238.799 193.771 238.799 194.883C238.799 195.996 239.701 196.898 240.813 196.898Z" fill="white"/>
<g opacity="0.5">
<g opacity="0.3">
<path opacity="0.3" d="M199.217 71.4948L204.306 56.3926C206.056 51.1333 206.07 45.4509 204.346 40.183C202.622 34.9152 199.251 30.3405 194.73 27.1335L194.772 27.1087C192.77 25.6995 190.575 24.5873 188.255 23.8068L188.184 23.782L188.106 23.7573C185.854 22.9955 183.506 22.5537 181.131 22.4447C180.291 22.4014 179.449 22.4014 178.609 22.4447C177.151 22.521 175.703 22.7212 174.279 23.0432C173.866 23.134 173.454 23.2372 173.078 23.3486C172.703 23.4601 172.282 23.5798 171.889 23.7077C171.105 23.9678 170.333 24.2608 169.578 24.5951C169.198 24.7602 168.823 24.9336 168.455 25.1193C167.345 25.6677 166.276 26.2968 165.257 27.0014C164.914 27.2367 164.58 27.4802 164.25 27.7278C160.17 30.8304 157.116 35.0865 155.483 39.9449L147.484 63.7394C146.225 67.471 145.847 71.4433 146.378 75.3456C146.461 75.9441 146.564 76.5384 146.683 77.1287C146.803 77.7189 146.952 78.3008 147.096 78.8787C147.208 79.2625 147.323 79.6464 147.451 80.0261C147.641 80.5915 147.864 81.157 148.074 81.7101C148.227 82.0774 148.388 82.4448 148.557 82.808C148.892 83.5303 149.263 84.236 149.663 84.9253C150.064 85.6146 150.489 86.2874 150.968 86.9395C151.314 87.4265 151.682 87.9053 152.061 88.3676C152.573 88.9867 153.11 89.5852 153.679 90.1547C156.145 92.6402 159.095 94.5916 162.347 95.8877L162.487 95.9455C162.662 95.6357 162.855 95.3366 163.065 95.0498C164.303 93.3535 166.458 92.1607 168.509 92.6064C168.658 92.6394 168.806 92.6848 168.955 92.7302C169.995 93.0976 171.019 93.7538 172.022 94.0758C172.386 94.2397 172.782 94.322 173.182 94.317C173.582 94.312 173.976 94.2198 174.337 94.0469C176.343 92.9779 175.6 89.6058 177.321 88.1282C177.401 88.06 177.485 87.9966 177.573 87.9383C177.548 87.9084 177.526 87.8766 177.507 87.8434C178.836 87.0179 180.677 87.5668 182.208 88.0993C183.859 88.6812 186.013 89.0733 187.161 87.7237C187.937 86.7991 187.879 85.3917 188.618 84.4218C189.476 83.3074 191.094 83.1836 192.493 83.3817H192.564C195.246 84.4878 198.177 82.6511 197.97 79.7578C197.727 75.9193 198.94 72.2831 199.217 71.4948Z" fill="url(#paint1_linear)"/>
</g>
<path opacity="0.5" d="M163.531 93.7787C164.736 92.1277 166.804 90.972 168.785 91.4219C170.766 91.8718 172.644 93.758 174.407 92.8129C176.817 91.5251 175.108 86.791 179.021 86.4402C179.836 86.3863 180.653 86.5278 181.403 86.8529C183.054 87.5257 185.637 88.2851 186.909 86.7703C187.656 85.8788 187.602 84.5209 188.316 83.5964C189.141 82.5233 190.714 82.3871 192.055 82.5934L192.121 82.6141C194.709 83.6831 197.541 81.9083 197.338 79.1182C197.078 75.4035 198.259 71.9035 198.515 71.144L203.418 56.5702C205.504 50.3225 205.031 43.5032 202.104 37.6029C199.177 31.7025 194.032 27.201 187.796 25.0822C181.549 22.9993 174.731 23.4737 168.833 26.4017C162.934 29.3296 158.434 34.4732 156.316 40.7086L148.586 63.628C146.576 69.6559 146.945 76.2235 149.616 81.9886C152.288 87.7538 157.06 92.2811 162.957 94.6454C163.131 94.3455 163.323 94.0561 163.531 93.7787Z" fill="white"/>
<path opacity="0.2" d="M172.671 41.1047C174.155 41.1047 175.358 39.9017 175.358 38.4178C175.358 36.9338 174.155 35.7308 172.671 35.7308C171.187 35.7308 169.984 36.9338 169.984 38.4178C169.984 39.9017 171.187 41.1047 172.671 41.1047Z" fill="black"/>
<path opacity="0.2" d="M187.949 46.2434C189.433 46.2434 190.636 45.0404 190.636 43.5564C190.636 42.0725 189.433 40.8695 187.949 40.8695C186.465 40.8695 185.262 42.0725 185.262 43.5564C185.262 45.0404 186.465 46.2434 187.949 46.2434Z" fill="black"/>
</g>
<path opacity="0.1" d="M235.063 41.0388C235.83 44.0045 236.217 47.0558 236.215 50.1191C236.215 75.4077 209.754 95.9085 177.11 95.9085C150.394 95.8919 127.821 82.1642 120.52 63.3268C125.943 84.2816 149.824 100.061 178.472 100.061C211.116 100.061 237.581 79.5598 237.581 54.2713C237.572 49.7422 236.719 45.2545 235.063 41.0388Z" fill="black"/>
<g opacity="0.8">
<path opacity="0.8" d="M178.304 106.524C245.818 106.524 300.549 92.2195 300.549 74.5739C300.549 56.9282 245.818 42.6237 178.304 42.6237C110.79 42.6237 56.0586 56.9282 56.0586 74.5739C56.0586 92.2195 110.79 106.524 178.304 106.524Z" fill="url(#paint2_linear)"/>
</g>
<path d="M178.305 43.6802C113.018 43.6802 60.0879 57.5111 60.0879 74.5779H296.522C296.522 57.5111 243.592 43.6802 178.305 43.6802Z" fill="white"/>
<path d="M178.305 105.472C243.592 105.472 296.522 91.6407 296.522 74.578H60.0879C60.0879 91.6407 113.018 105.472 178.305 105.472Z" fill="white"/>
<path opacity="0.05" d="M178.305 105.472C243.592 105.472 296.522 91.6407 296.522 74.578H60.0879C60.0879 91.6407 113.018 105.472 178.305 105.472Z" fill="black"/>
<path opacity="0.05" d="M227.617 66.5131H128.988C125.063 66.5131 121.881 69.6951 121.881 73.6204V75.5273C121.881 79.4526 125.063 82.6347 128.988 82.6347H227.617C231.542 82.6347 234.724 79.4526 234.724 75.5273V73.6204C234.724 69.6951 231.542 66.5131 227.617 66.5131Z" fill="black"/>
<path opacity="0.5" d="M55.2614 23.8605C54.9204 23.7117 54.6459 23.4429 54.4899 23.1051C54.3339 22.7673 54.3074 22.384 54.4153 22.028C54.4326 21.973 54.4437 21.9162 54.4483 21.8587C54.4588 21.6954 54.4163 21.533 54.3271 21.3958C54.2378 21.2586 54.1066 21.1539 53.9531 21.0973C53.7995 21.0407 53.6317 21.0352 53.4748 21.0817C53.3178 21.1281 53.1801 21.2241 53.0821 21.3552C53.0491 21.4014 53.0214 21.4513 52.9996 21.5038C52.8515 21.8454 52.5828 22.1205 52.2447 22.2765C51.9067 22.4326 51.5231 22.4587 51.167 22.3499C51.1119 22.333 51.0552 22.3219 50.9978 22.3169C50.8344 22.3063 50.6721 22.3489 50.5349 22.4381C50.3976 22.5273 50.2929 22.6585 50.2363 22.8121C50.1797 22.9657 50.1742 23.1334 50.2207 23.2904C50.2672 23.4473 50.3631 23.585 50.4942 23.683C50.5398 23.7182 50.5898 23.7473 50.6428 23.7697C50.9838 23.9185 51.2584 24.1873 51.4143 24.5251C51.5703 24.8629 51.5968 25.2462 51.4889 25.6023C51.472 25.656 51.4609 25.7113 51.4559 25.7674C51.4444 25.9311 51.4862 26.0941 51.5751 26.2321C51.6639 26.37 51.7951 26.4755 51.9489 26.5327C52.1028 26.5898 52.271 26.5956 52.4284 26.5492C52.5858 26.5027 52.7239 26.4066 52.8221 26.275C52.856 26.2279 52.8837 26.1766 52.9046 26.1223C53.0564 25.7845 53.3266 25.514 53.6643 25.3619C54.002 25.2098 54.3836 25.1866 54.7372 25.2969C54.7923 25.3137 54.849 25.3248 54.9064 25.3299C55.0698 25.3404 55.2321 25.2979 55.3693 25.2087C55.5066 25.1194 55.6113 24.9882 55.6679 24.8347C55.7245 24.6811 55.73 24.5133 55.6835 24.3564C55.637 24.1994 55.5411 24.0617 55.41 23.9637C55.3653 23.9227 55.3154 23.888 55.2614 23.8605Z" fill="#4D8AF0"/>
<path opacity="0.5" d="M265.346 150.159C265.009 150.007 264.739 149.736 264.587 149.399C264.435 149.061 264.411 148.68 264.521 148.326C264.538 148.271 264.549 148.215 264.554 148.157C264.564 147.994 264.522 147.831 264.433 147.694C264.343 147.557 264.212 147.452 264.059 147.396C263.905 147.339 263.737 147.334 263.58 147.38C263.423 147.427 263.286 147.523 263.188 147.654C263.155 147.7 263.127 147.75 263.105 147.802C262.957 148.144 262.688 148.419 262.35 148.575C262.012 148.731 261.629 148.757 261.272 148.648C261.217 148.631 261.161 148.62 261.103 148.615C260.94 148.605 260.778 148.647 260.64 148.737C260.503 148.826 260.398 148.957 260.342 149.111C260.285 149.264 260.28 149.432 260.326 149.589C260.373 149.746 260.469 149.884 260.6 149.982C260.645 150.017 260.695 150.046 260.748 150.068C261.086 150.221 261.355 150.491 261.507 150.828C261.659 151.166 261.683 151.547 261.574 151.901C261.557 151.954 261.546 152.01 261.541 152.066C261.529 152.23 261.571 152.393 261.66 152.531C261.749 152.669 261.88 152.774 262.034 152.831C262.188 152.888 262.356 152.894 262.513 152.848C262.671 152.801 262.809 152.705 262.907 152.574C262.941 152.526 262.969 152.475 262.989 152.421C263.141 152.083 263.411 151.812 263.749 151.66C264.087 151.508 264.468 151.485 264.822 151.595C264.877 151.612 264.934 151.623 264.991 151.628C265.155 151.639 265.317 151.596 265.454 151.507C265.591 151.418 265.696 151.287 265.753 151.133C265.809 150.98 265.815 150.812 265.768 150.655C265.722 150.498 265.626 150.36 265.495 150.262C265.45 150.221 265.4 150.186 265.346 150.159Z" fill="#4D8AF0"/>
<path opacity="0.5" d="M33.3864 208.768C33.0454 208.619 32.7709 208.35 32.6149 208.013C32.4589 207.675 32.4324 207.291 32.5403 206.935C32.5576 206.88 32.5687 206.824 32.5733 206.766C32.5838 206.603 32.5413 206.44 32.4521 206.303C32.3628 206.166 32.2316 206.061 32.0781 206.005C31.9245 205.948 31.7567 205.943 31.5998 205.989C31.4428 206.036 31.3051 206.132 31.2071 206.263C31.1741 206.309 31.1464 206.359 31.1246 206.411C30.9765 206.753 30.7078 207.028 30.3697 207.184C30.0317 207.34 29.6481 207.366 29.292 207.257C29.2369 207.24 29.1802 207.229 29.1228 207.224C28.9594 207.214 28.7971 207.256 28.6598 207.346C28.5226 207.435 28.4179 207.566 28.3613 207.72C28.3047 207.873 28.2992 208.041 28.3457 208.198C28.3922 208.355 28.4881 208.493 28.6192 208.591C28.6648 208.626 28.7148 208.655 28.7678 208.677C29.1088 208.826 29.3833 209.095 29.5393 209.433C29.6953 209.77 29.7218 210.154 29.6139 210.51C29.597 210.563 29.5859 210.619 29.5809 210.675C29.5694 210.839 29.6112 211.002 29.7 211.14C29.7889 211.278 29.9201 211.383 30.0739 211.44C30.2278 211.497 30.396 211.503 30.5534 211.457C30.7108 211.41 30.8489 211.314 30.9471 211.183C30.981 211.135 31.0087 211.084 31.0296 211.03C31.1814 210.692 31.4516 210.421 31.7893 210.269C32.1269 210.117 32.5086 210.094 32.8622 210.204C32.9173 210.221 32.974 210.232 33.0314 210.237C33.1948 210.248 33.3571 210.205 33.4943 210.116C33.6316 210.027 33.7363 209.896 33.7929 209.742C33.8495 209.589 33.855 209.421 33.8085 209.264C33.762 209.107 33.6661 208.969 33.535 208.871C33.4903 208.83 33.4404 208.795 33.3864 208.768Z" fill="#4D8AF0"/>
<path opacity="0.5" d="M10.6861 72.1512C10.3488 71.9987 10.0789 71.7284 9.92685 71.391C9.77485 71.0535 9.75128 70.6722 9.86057 70.3186C9.8779 70.2636 9.88898 70.2069 9.89359 70.1494C9.90413 69.986 9.86161 69.8237 9.77237 69.6865C9.68313 69.5492 9.55195 69.4445 9.39837 69.3879C9.24479 69.3313 9.07703 69.3258 8.92009 69.3723C8.76314 69.4188 8.62542 69.5147 8.52743 69.6458C8.49438 69.6921 8.46668 69.7419 8.44488 69.7944C8.29679 70.136 8.02808 70.4111 7.69005 70.5672C7.35203 70.7233 6.96837 70.7494 6.61231 70.6405C6.55721 70.6237 6.50049 70.6126 6.44309 70.6075C6.27975 70.597 6.11737 70.6395 5.98016 70.7288C5.84295 70.818 5.73823 70.9492 5.68163 71.1027C5.62502 71.2563 5.61955 71.4241 5.66603 71.581C5.7125 71.738 5.80844 71.8757 5.93954 71.9737C5.98513 72.0089 6.03508 72.038 6.08813 72.0604C6.42914 72.2092 6.70366 72.478 6.85962 72.8158C7.01559 73.1536 7.04214 73.5369 6.93425 73.8929C6.91732 73.9466 6.90625 74.002 6.90123 74.058C6.88969 74.2217 6.93148 74.3848 7.02036 74.5227C7.10924 74.6607 7.24042 74.7662 7.39425 74.8233C7.54809 74.8805 7.7163 74.8863 7.87371 74.8398C8.03111 74.7934 8.16923 74.6972 8.2674 74.5657C8.30131 74.5185 8.32905 74.4672 8.34994 74.413C8.50168 74.0751 8.77193 73.8046 9.1096 73.6525C9.44726 73.5004 9.82895 73.4773 10.1825 73.5875C10.2376 73.6044 10.2943 73.6155 10.3517 73.6205C10.5151 73.6311 10.6774 73.5885 10.8147 73.4993C10.9519 73.4101 11.0566 73.2789 11.1132 73.1253C11.1698 72.9717 11.1753 72.804 11.1288 72.647C11.0823 72.4901 10.9864 72.3523 10.8553 72.2544C10.8043 72.2117 10.7473 72.177 10.6861 72.1512Z" fill="#4D8AF0"/>
<path opacity="0.5" d="M261.221 2.81084C260.884 2.65839 260.614 2.38806 260.462 2.05062C260.31 1.71319 260.286 1.33186 260.395 0.978277C260.413 0.923288 260.424 0.866521 260.428 0.809052C260.439 0.645712 260.396 0.483338 260.307 0.346124C260.218 0.208911 260.087 0.1042 259.933 0.0475938C259.78 -0.00901278 259.612 -0.0144853 259.455 0.0319907C259.298 0.0784667 259.16 0.174404 259.062 0.305509C259.029 0.351755 259.001 0.401603 258.98 0.454096C258.828 0.791924 258.558 1.06246 258.22 1.21456C257.882 1.36666 257.501 1.38979 257.147 1.27958C257.092 1.26269 257.035 1.25162 256.978 1.24656C256.8 1.20923 256.615 1.23697 256.455 1.32472C256.296 1.41247 256.174 1.55441 256.11 1.72477C256.047 1.89512 256.047 2.08258 256.11 2.25309C256.173 2.4236 256.295 2.56585 256.454 2.654C256.499 2.68917 256.549 2.7183 256.602 2.74068C256.94 2.89313 257.209 3.16346 257.361 3.50089C257.513 3.83833 257.537 4.21966 257.428 4.57324C257.411 4.62692 257.4 4.68228 257.395 4.73834C257.377 4.90829 257.418 5.07917 257.509 5.22334C257.601 5.36752 257.739 5.47658 257.9 5.53289C258.061 5.5892 258.237 5.58948 258.398 5.53368C258.56 5.47788 258.698 5.36926 258.79 5.22537C258.824 5.1782 258.851 5.12687 258.872 5.07266C259.024 4.73483 259.294 4.46429 259.632 4.31219C259.97 4.16009 260.351 4.13696 260.705 4.24718C260.76 4.26406 260.817 4.27513 260.874 4.2802C261.037 4.29073 261.2 4.24821 261.337 4.15897C261.474 4.06973 261.579 3.93855 261.636 3.78497C261.692 3.63139 261.698 3.46363 261.651 3.30669C261.605 3.14975 261.509 3.01202 261.378 2.91403C261.331 2.87243 261.278 2.83769 261.221 2.81084Z" fill="#4D8AF0"/>
<g opacity="0.5">
<path opacity="0.5" d="M46.6386 106.425H45.4004V113.442H46.6386V106.425Z" fill="#47E6B1"/>
<path opacity="0.5" d="M49.5273 110.552V109.314H42.5108V110.552H49.5273Z" fill="#47E6B1"/>
</g>
<g opacity="0.5">
<path opacity="0.5" d="M343.812 73.4058H342.574V80.4223H343.812V73.4058Z" fill="#47E6B1"/>
<path opacity="0.5" d="M346.701 77.5332V76.2949H339.685V77.5332H346.701Z" fill="#47E6B1"/>
</g>
<g opacity="0.5">
<path opacity="0.5" d="M302.537 188.56H301.299V195.577H302.537V188.56Z" fill="#47E6B1"/>
<path opacity="0.5" d="M305.426 192.688V191.449H298.409V192.688H305.426Z" fill="#47E6B1"/>
</g>
<path opacity="0.5" d="M298.41 36.2592C299.778 36.2592 300.887 35.1504 300.887 33.7827C300.887 32.415 299.778 31.3063 298.41 31.3063C297.042 31.3063 295.934 32.415 295.934 33.7827C295.934 35.1504 297.042 36.2592 298.41 36.2592Z" fill="#F55F44"/>
<path opacity="0.5" d="M2.47644 7.78015C3.84414 7.78015 4.95288 6.67141 4.95288 5.30371C4.95288 3.93601 3.84414 2.82727 2.47644 2.82727C1.10874 2.82727 0 3.93601 0 5.30371C0 6.67141 1.10874 7.78015 2.47644 7.78015Z" fill="#F55F44"/>
<path opacity="0.5" d="M76.7694 150.175C78.1371 150.175 79.2458 149.067 79.2458 147.699C79.2458 146.331 78.1371 145.223 76.7694 145.223C75.4017 145.223 74.293 146.331 74.293 147.699C74.293 149.067 75.4017 150.175 76.7694 150.175Z" fill="#F55F44"/>
<path opacity="0.05" d="M96.582 66.6286C104.332 66.6286 110.615 65.3351 110.615 63.7394C110.615 62.1438 104.332 60.8502 96.582 60.8502C88.8317 60.8502 82.5488 62.1438 82.5488 63.7394C82.5488 65.3351 88.8317 66.6286 96.582 66.6286Z" fill="black"/>
<path opacity="0.05" d="M96.582 88.5038C104.332 88.5038 110.615 87.2103 110.615 85.6146C110.615 84.019 104.332 82.7255 96.582 82.7255C88.8317 82.7255 82.5488 84.019 82.5488 85.6146C82.5488 87.2103 88.8317 88.5038 96.582 88.5038Z" fill="black"/>
<path opacity="0.05" d="M256.312 66.6286C264.063 66.6286 270.346 65.3351 270.346 63.7394C270.346 62.1438 264.063 60.8502 256.312 60.8502C248.562 60.8502 242.279 62.1438 242.279 63.7394C242.279 65.3351 248.562 66.6286 256.312 66.6286Z" fill="black"/>
<path opacity="0.05" d="M256.312 88.5038C264.063 88.5038 270.346 87.2103 270.346 85.6146C270.346 84.019 264.063 82.7255 256.312 82.7255C248.562 82.7255 242.279 84.019 242.279 85.6146C242.279 87.2103 248.562 88.5038 256.312 88.5038Z" fill="black"/>
<path opacity="0.05" d="M178.303 54.2465C186.053 54.2465 192.336 52.953 192.336 51.3573C192.336 49.7617 186.053 48.4681 178.303 48.4681C170.552 48.4681 164.27 49.7617 164.27 51.3573C164.27 52.953 170.552 54.2465 178.303 54.2465Z" fill="black"/>
<path opacity="0.05" d="M188.623 24.1165C196.373 24.1165 202.656 22.823 202.656 21.2273C202.656 19.6317 196.373 18.3381 188.623 18.3381C180.873 18.3381 174.59 19.6317 174.59 21.2273C174.59 22.823 180.873 24.1165 188.623 24.1165Z" fill="black"/>
<path opacity="0.05" d="M161.795 36.4986C169.545 36.4986 175.828 35.205 175.828 33.6094C175.828 32.0137 169.545 30.7202 161.795 30.7202C154.045 30.7202 147.762 32.0137 147.762 33.6094C147.762 35.205 154.045 36.4986 161.795 36.4986Z" fill="black"/>
<path opacity="0.05" d="M213.387 41.8643C221.137 41.8643 227.42 40.5708 227.42 38.9751C227.42 37.3795 221.137 36.0859 213.387 36.0859C205.636 36.0859 199.354 37.3795 199.354 38.9751C199.354 40.5708 205.636 41.8643 213.387 41.8643Z" fill="black"/>
<path opacity="0.05" d="M178.303 97.1714C186.053 97.1714 192.336 95.8779 192.336 94.2822C192.336 92.6866 186.053 91.3931 178.303 91.3931C170.552 91.3931 164.27 92.6866 164.27 94.2822C164.27 95.8779 170.552 97.1714 178.303 97.1714Z" fill="black"/>
</g>
<defs>
<linearGradient id="paint0_linear" x1="178.303" y1="101.443" x2="178.303" y2="7.78003" gradientUnits="userSpaceOnUse">
<stop stop-color="#808080" stop-opacity="0.25"/>
<stop offset="0.54" stop-color="#808080" stop-opacity="0.12"/>
<stop offset="1" stop-color="#808080" stop-opacity="0.1"/>
</linearGradient>
<linearGradient id="paint1_linear" x1="-16905.7" y1="113475" x2="-12542.5" y2="100521" gradientUnits="userSpaceOnUse">
<stop stop-color="#808080" stop-opacity="0.25"/>
<stop offset="0.54" stop-color="#808080" stop-opacity="0.12"/>
<stop offset="1" stop-color="#808080" stop-opacity="0.1"/>
</linearGradient>
<linearGradient id="paint2_linear" x1="105676" y1="16534.7" x2="105676" y2="6641.62" gradientUnits="userSpaceOnUse">
<stop stop-color="#808080" stop-opacity="0.25"/>
<stop offset="0.54" stop-color="#808080" stop-opacity="0.12"/>
<stop offset="1" stop-color="#808080" stop-opacity="0.1"/>
</linearGradient>
<clipPath id="clip0">
<rect width="346.702" height="300" fill="white"/>
</clipPath>
</defs>
</svg>
